<svg xmlns="http://www.w3.org/2000/svg" xmlns:xlink="http://www.w3.org/1999/xlink" width="1718" zoomAndPan="magnify" viewBox="0 0 1288.5 435.749989" height="581" preserveAspectRatio="xMidYMid meet" version="1.0"><defs><g/><clipPath id="621ad99aae"><path d="M 52 112 L 272 112 L 272 332 L 52 332 Z M 52 112 " clip-rule="nonzero"/></clipPath><clipPath id="415c9d096d"><path d="M 37.613281 147.285156 L 87.25 97.652344 L 286.839844 297.242188 L 237.207031 346.878906 Z M 37.613281 147.285156 " clip-rule="nonzero"/></clipPath><clipPath id="381e09f057"><path d="M 62.234375 122.664062 C 68.765625 116.136719 77.621094 112.46875 86.855469 112.46875 C 96.089844 112.46875 104.945312 116.136719 111.476562 122.664062 L 261.308594 272.5 C 267.839844 279.027344 271.507812 287.886719 271.507812 297.121094 C 271.507812 306.355469 267.839844 315.210938 261.308594 321.738281 C 254.78125 328.269531 245.921875 331.9375 236.6875 331.9375 C 227.453125 331.9375 218.597656 328.269531 212.070312 321.738281 L 62.234375 171.90625 C 55.707031 165.375 52.035156 156.519531 52.035156 147.285156 C 52.035156 138.050781 55.707031 129.195312 62.234375 122.664062 " clip-rule="nonzero"/></clipPath><clipPath id="7ecad5573e"><path d="M 65 254 L 194 254 L 194 383 L 65 383 Z M 65 254 " clip-rule="nonzero"/></clipPath><clipPath id="e87509087b"><path d="M 50.371094 291.242188 L 103.175781 238.441406 L 209.835938 345.101562 L 157.03125 397.902344 Z M 50.371094 291.242188 " clip-rule="nonzero"/></clipPath><clipPath id="cf7deb2983"><path d="M 76.511719 265.101562 C 90.949219 250.664062 114.355469 250.664062 128.792969 265.101562 L 182.859375 319.167969 C 197.296875 333.605469 197.296875 357.011719 182.859375 371.449219 C 168.421875 385.886719 145.015625 385.886719 130.578125 371.449219 L 76.511719 317.382812 C 62.074219 302.945312 62.074219 279.539062 76.511719 265.101562 " clip-rule="nonzero"/></clipPath><clipPath id="dc051a96e6"><path d="M 120 52 L 250 52 L 250 183 L 120 183 Z M 120 52 " clip-rule="nonzero"/></clipPath><clipPath id="5f3b9c533a"><path d="M 104.9375 89.769531 L 157.738281 36.96875 L 265.453125 144.683594 L 212.652344 197.488281 Z M 104.9375 89.769531 " clip-rule="nonzero"/></clipPath><clipPath id="3986d43d44"><path d="M 131.078125 63.628906 C 145.511719 49.195312 168.921875 49.195312 183.355469 63.628906 L 238.625 118.902344 C 253.0625 133.335938 253.0625 156.746094 238.625 171.179688 C 224.191406 185.617188 200.78125 185.617188 186.347656 171.179688 L 131.078125 115.910156 C 116.640625 101.476562 116.640625 78.066406 131.078125 63.628906 " clip-rule="nonzero"/></clipPath></defs><g clip-path="url(#621ad99aae)"><g clip-path="url(#415c9d096d)"><g clip-path="url(#381e09f057)"><path fill="#00569e" d="M 37.613281 147.285156 L 86.71875 98.179688 L 285.785156 297.242188 L 236.679688 346.351562 Z M 37.613281 147.285156 " fill-opacity="1" fill-rule="nonzero"/></g></g></g><g clip-path="url(#7ecad5573e)"><g clip-path="url(#e87509087b)"><g clip-path="url(#cf7deb2983)"><path fill="#47c5fb" d="M 50.371094 291.242188 L 102.648438 238.96875 L 208.777344 345.101562 L 156.503906 397.375 Z M 50.371094 291.242188 " fill-opacity="1" fill-rule="nonzero"/></g></g></g><g clip-path="url(#dc051a96e6)"><g clip-path="url(#5f3b9c533a)"><g clip-path="url(#3986d43d44)"><path fill="#47c5fb" d="M 104.9375 89.769531 L 157.210938 37.496094 L 264.925781 145.214844 L 212.652344 197.488281 Z M 104.9375 89.769531 " fill-opacity="1" fill-rule="nonzero"/></g></g></g><g fill="#ffffff" fill-opacity="1"><g transform="translate(337.855125, 307.311328)"><g><path d="M 116.234375 -132.015625 C 115.273438 -139.484375 113.265625 -145.609375 110.203125 -150.390625 C 106.765625 -155.554688 102.507812 -159.332031 97.4375 -161.71875 C 92.363281 -164.113281 85.90625 -165.3125 78.0625 -165.3125 C 65.050781 -165.3125 55.960938 -162.535156 50.796875 -156.984375 C 45.828125 -152.015625 43.34375 -144.84375 43.34375 -135.46875 C 43.34375 -130.101562 44.101562 -125.75 45.625 -122.40625 C 47.15625 -119.0625 49.453125 -116.332031 52.515625 -114.21875 C 57.109375 -110.96875 64.664062 -108.863281 75.1875 -107.90625 C 85.90625 -106.957031 94.945312 -105.476562 102.3125 -103.46875 C 109.675781 -101.457031 116.132812 -98.726562 121.6875 -95.28125 C 135.65625 -86.476562 142.640625 -72.703125 142.640625 -53.953125 C 142.640625 -46.679688 141.203125 -39.789062 138.328125 -33.28125 C 135.460938 -26.78125 131.445312 -20.945312 126.28125 -15.78125 C 120.15625 -9.851562 112.929688 -5.453125 104.609375 -2.578125 C 96.285156 0.285156 87.628906 1.71875 78.640625 1.71875 C 58.359375 1.71875 42.191406 -4.019531 30.140625 -15.5 C 19.804688 -25.832031 13.585938 -39.609375 11.484375 -56.828125 L 12.046875 -57.109375 L 37.3125 -57.109375 C 38.84375 -46.972656 42.285156 -39.414062 47.640625 -34.4375 C 55.097656 -27.550781 65.144531 -24.109375 77.78125 -24.109375 C 89.832031 -24.109375 99.394531 -26.878906 106.46875 -32.421875 C 113.550781 -37.972656 117.09375 -45.148438 117.09375 -53.953125 C 117.09375 -57.972656 116.566406 -61.460938 115.515625 -64.421875 C 114.460938 -67.390625 112.503906 -70.023438 109.640625 -72.328125 C 103.128906 -77.296875 90.976562 -80.453125 73.1875 -81.796875 C 55.007812 -83.328125 41.234375 -88.585938 31.859375 -97.578125 C 22.484375 -106.566406 17.796875 -119.195312 17.796875 -135.46875 C 17.796875 -151.914062 22.863281 -165.210938 33 -175.359375 C 43.71875 -186.066406 58.644531 -191.421875 77.78125 -191.421875 C 97.675781 -191.421875 113.171875 -185.394531 124.265625 -173.34375 C 134.023438 -162.820312 139.957031 -149.046875 142.0625 -132.015625 Z M 116.234375 -132.015625 "/></g></g></g><g fill="#ffffff" fill-opacity="1"><g transform="translate(491.973799, 307.311328)"><g><path d="M 57.40625 -117.671875 L 57.40625 0 L 33 0 L 33 -117.671875 L 11.484375 -117.671875 L 11.484375 -143.5 L 33 -143.5 L 33 -190.859375 L 57.40625 -190.859375 L 57.40625 -143.5 L 78.921875 -143.5 L 78.921875 -117.671875 Z M 57.40625 -117.671875 "/></g></g></g><g fill="#ffffff" fill-opacity="1"><g transform="translate(582.378651, 307.311328)"><g><path d="M 84.09375 1.4375 C 74.332031 1.4375 65.050781 -0.472656 56.25 -4.296875 C 47.445312 -8.128906 39.695312 -13.394531 33 -20.09375 C 26.300781 -26.789062 21.039062 -34.535156 17.21875 -43.328125 C 13.394531 -52.128906 11.484375 -61.410156 11.484375 -71.171875 C 11.484375 -81.117188 13.394531 -90.585938 17.21875 -99.578125 C 21.039062 -108.578125 26.300781 -116.425781 33 -123.125 C 39.695312 -129.820312 47.445312 -135.035156 56.25 -138.765625 C 65.050781 -142.492188 74.332031 -144.359375 84.09375 -144.359375 C 94.039062 -144.359375 103.507812 -142.492188 112.5 -138.765625 C 121.5 -135.035156 129.34375 -129.820312 136.03125 -123.125 C 142.726562 -116.425781 147.941406 -108.578125 151.671875 -99.578125 C 155.410156 -90.585938 157.28125 -81.117188 157.28125 -71.171875 C 157.28125 -61.410156 155.410156 -52.128906 151.671875 -43.328125 C 147.941406 -34.535156 142.726562 -26.789062 136.03125 -20.09375 C 129.34375 -13.394531 121.5 -8.128906 112.5 -4.296875 C 103.507812 -0.472656 94.039062 1.4375 84.09375 1.4375 Z M 84.09375 -118.8125 C 71.269531 -118.8125 60.269531 -114.222656 51.09375 -105.046875 C 46.6875 -100.640625 43.238281 -95.46875 40.75 -89.53125 C 38.257812 -83.601562 37.015625 -77.484375 37.015625 -71.171875 C 37.015625 -64.859375 38.257812 -58.832031 40.75 -53.09375 C 43.238281 -47.351562 46.6875 -42.285156 51.09375 -37.890625 C 55.488281 -33.484375 60.507812 -30.035156 66.15625 -27.546875 C 71.800781 -25.066406 77.78125 -23.828125 84.09375 -23.828125 C 90.40625 -23.828125 96.523438 -25.066406 102.453125 -27.546875 C 108.390625 -30.035156 113.460938 -33.484375 117.671875 -37.890625 C 121.878906 -42.285156 125.226562 -47.351562 127.71875 -53.09375 C 130.207031 -58.832031 131.453125 -64.859375 131.453125 -71.171875 C 131.453125 -77.484375 130.207031 -83.601562 127.71875 -89.53125 C 125.226562 -95.46875 121.878906 -100.640625 117.671875 -105.046875 C 113.460938 -109.441406 108.4375 -112.832031 102.59375 -115.21875 C 96.757812 -117.613281 90.59375 -118.8125 84.09375 -118.8125 Z M 84.09375 -118.8125 "/></g></g></g><g fill="#ffffff" fill-opacity="1"><g transform="translate(751.134337, 307.311328)"><g><path d="M 78.34375 -115.953125 C 73.757812 -118.054688 69.648438 -119.109375 66.015625 -119.109375 C 58.359375 -119.109375 52.039062 -116.425781 47.0625 -111.0625 C 41.707031 -105.320312 39.03125 -98.722656 39.03125 -91.265625 L 39.03125 0 L 14.34375 0 L 14.34375 -91.265625 C 14.34375 -101.597656 16.972656 -111.066406 22.234375 -119.671875 C 27.503906 -128.285156 34.726562 -134.984375 43.90625 -139.765625 C 50.800781 -143.015625 58.171875 -144.640625 66.015625 -144.640625 C 72.328125 -144.640625 78.351562 -143.492188 84.09375 -141.203125 C 89.832031 -138.910156 95.859375 -135.179688 102.171875 -130.015625 Z M 78.34375 -115.953125 "/></g></g></g><g fill="#ffffff" fill-opacity="1"><g transform="translate(864.786127, 307.311328)"><g><path d="M 179.375 0 L 179.375 -89.828125 C 179.375 -97.671875 176.644531 -104.269531 171.1875 -109.625 C 165.738281 -114.988281 159.09375 -117.671875 151.25 -117.671875 C 143.59375 -117.671875 136.894531 -114.992188 131.15625 -109.640625 C 125.613281 -104.472656 122.84375 -97.96875 122.84375 -90.125 L 122.84375 0 L 96.71875 0 L 96.71875 -90.125 C 96.71875 -98.15625 94.039062 -104.660156 88.6875 -109.640625 C 82.945312 -114.992188 76.15625 -117.671875 68.3125 -117.671875 C 60.65625 -117.671875 54.148438 -114.992188 48.796875 -109.640625 C 43.054688 -103.898438 40.1875 -97.101562 40.1875 -89.25 L 40.1875 0 L 14.34375 0 L 14.34375 -140.0625 L 40.1875 -140.0625 L 40.1875 -129.4375 C 43.4375 -133.457031 47.691406 -136.804688 52.953125 -139.484375 C 58.210938 -142.160156 63.332031 -143.5 68.3125 -143.5 C 76.726562 -143.5 84.425781 -141.820312 91.40625 -138.46875 C 98.394531 -135.125 104.472656 -130.488281 109.640625 -124.5625 C 114.804688 -130.488281 120.925781 -135.125 128 -138.46875 C 135.082031 -141.820312 142.832031 -143.5 151.25 -143.5 C 158.707031 -143.5 165.6875 -142.160156 172.1875 -139.484375 C 178.695312 -136.804688 184.441406 -132.976562 189.421875 -128 C 194.390625 -123.03125 198.257812 -117.242188 201.03125 -110.640625 C 203.8125 -104.035156 205.203125 -97.097656 205.203125 -89.828125 L 205.203125 0 Z M 179.375 0 "/></g></g></g><g fill="#ffffff" fill-opacity="1"><g transform="translate(1084.340698, 307.311328)"><g><path d="M 125.703125 0 L 82.9375 -70.609375 L 39.890625 0 L 10.046875 0 L 68.015625 -95.28125 L 10.046875 -190.859375 L 39.890625 -190.859375 L 82.9375 -119.96875 L 126 -190.859375 L 155.84375 -190.859375 L 97.859375 -95.578125 L 155.84375 0 Z M 125.703125 0 "/></g></g></g></svg>