<svg xmlns="http://www.w3.org/2000/svg" xmlns:xlink="http://www.w3.org/1999/xlink" width="866" zoomAndPan="magnify" viewBox="0 0 649.5 907.499977" height="1210" preserveAspectRatio="xMidYMid meet" version="1.0"><defs><clipPath id="0d593281f4"><path d="M 69 208 L 581 208 L 581 721 L 69 721 Z M 69 208 " clip-rule="nonzero"/></clipPath><clipPath id="8d396f93e8"><path d="M 38.226562 291.628906 L 152.226562 177.632812 L 612.484375 637.886719 L 498.484375 751.886719 Z M 38.226562 291.628906 " clip-rule="nonzero"/></clipPath><clipPath id="2f720daf66"><path d="M 91.261719 238.59375 L 98.894531 230.960938 C 112.960938 216.898438 132.035156 208.996094 151.925781 208.996094 C 171.816406 208.996094 190.894531 216.898438 204.960938 230.960938 L 558.566406 584.566406 C 572.632812 598.632812 580.53125 617.710938 580.53125 637.601562 C 580.53125 657.492188 572.632812 676.570312 558.566406 690.632812 L 550.933594 698.265625 C 536.867188 712.332031 517.789062 720.234375 497.898438 720.234375 C 478.007812 720.234375 458.933594 712.332031 444.867188 698.265625 L 91.261719 344.660156 C 77.195312 330.597656 69.292969 311.519531 69.292969 291.628906 C 69.292969 271.738281 77.195312 252.660156 91.261719 238.59375 " clip-rule="nonzero"/></clipPath><clipPath id="e21ccf85de"><path d="M 98 534 L 403 534 L 403 839 L 98 839 Z M 98 534 " clip-rule="nonzero"/></clipPath><clipPath id="f06219a290"><path d="M 67.695312 624.027344 L 189.007812 502.714844 L 434.679688 748.386719 L 313.367188 869.699219 Z M 67.695312 624.027344 " clip-rule="nonzero"/></clipPath><clipPath id="86dc1888bc"><path d="M 120.726562 570.992188 L 135.382812 556.339844 C 149.445312 542.273438 168.523438 534.375 188.414062 534.375 C 208.304688 534.375 227.382812 542.273438 241.445312 556.339844 L 380.941406 695.832031 C 395.003906 709.898438 402.90625 728.976562 402.90625 748.867188 C 402.90625 768.757812 395.003906 787.835938 380.941406 801.898438 L 366.285156 816.554688 C 352.222656 830.617188 333.144531 838.519531 313.253906 838.519531 C 293.363281 838.519531 274.285156 830.617188 260.222656 816.554688 L 120.726562 677.058594 C 106.664062 662.996094 98.761719 643.917969 98.761719 624.027344 C 98.761719 604.136719 106.664062 585.058594 120.726562 570.992188 " clip-rule="nonzero"/></clipPath><clipPath id="0413eef305"><path d="M 224 69 L 532 69 L 532 377 L 224 377 Z M 224 69 " clip-rule="nonzero"/></clipPath><clipPath id="eb72544eb8"><path d="M 193.675781 158.824219 L 314.988281 37.511719 L 563.710938 286.234375 L 442.398438 407.546875 Z M 193.675781 158.824219 " clip-rule="nonzero"/></clipPath><clipPath id="0c158ab109"><path d="M 246.710938 105.792969 L 261.363281 91.136719 C 275.429688 77.074219 294.503906 69.171875 314.394531 69.171875 C 334.289062 69.171875 353.363281 77.074219 367.429688 91.136719 L 509.703125 233.410156 C 523.765625 247.476562 531.667969 266.554688 531.667969 286.445312 C 531.667969 306.335938 523.765625 325.414062 509.703125 339.476562 L 495.050781 354.132812 C 480.984375 368.195312 461.90625 376.097656 442.015625 376.097656 C 422.125 376.097656 403.046875 368.195312 388.984375 354.132812 L 246.710938 211.859375 C 232.644531 197.792969 224.742188 178.714844 224.742188 158.824219 C 224.742188 138.933594 232.644531 119.855469 246.710938 105.792969 " clip-rule="nonzero"/></clipPath></defs><g clip-path="url(#0d593281f4)"><g clip-path="url(#8d396f93e8)"><g clip-path="url(#2f720daf66)"><path fill="#00569e" d="M 38.226562 291.628906 L 152.226562 177.632812 L 611.875 637.277344 L 497.875 751.277344 Z M 38.226562 291.628906 " fill-opacity="1" fill-rule="nonzero"/></g></g></g><g clip-path="url(#e21ccf85de)"><g clip-path="url(#f06219a290)"><g clip-path="url(#86dc1888bc)"><path fill="#47c5fb" d="M 67.695312 624.027344 L 188.398438 503.324219 L 434.070312 748.996094 L 313.367188 869.699219 Z M 67.695312 624.027344 " fill-opacity="1" fill-rule="nonzero"/></g></g></g><g clip-path="url(#0413eef305)"><g clip-path="url(#eb72544eb8)"><g clip-path="url(#0c158ab109)"><path fill="#47c5fb" d="M 193.675781 158.824219 L 314.378906 38.121094 L 562.492188 286.234375 L 441.789062 406.9375 Z M 193.675781 158.824219 " fill-opacity="1" fill-rule="nonzero"/></g></g></g></svg>